<svg xmlns="http://www.w3.org/2000/svg" viewBox="0 0 28 24"><g id="separateur-titre"><path d="M22,10a5.54,5.54,0,0,0-1.69.28L18.83,5.85a2,2,0,0,0-1.91-1.37H15.65a.76.76,0,0,0-.77.77.77.77,0,0,0,.77.78h1.27a.48.48,0,0,1,.45.32l.22.65H11.06L11,6.68l.35,0A.62.62,0,0,0,11.84,6V6a.85.85,0,0,0-.77-.86L8.93,4.9a.9.9,0,0,0-.71.26A.89.89,0,0,0,8,5.87l.07.63a.54.54,0,0,0,.21.36A.5.5,0,0,0,8.65,7l.74-.09.24.72L8,10.38A5.32,5.32,0,0,0,6,10a5.26,5.26,0,1,0,5.19,6h2.22a.78.78,0,0,0,.59-.27l4.7-5.56L19,11A5.24,5.24,0,1,0,22,10ZM10.27,9.55l1.63,4.91h-.74A5.25,5.25,0,0,0,9.3,11.17Zm-1.78,3a3.68,3.68,0,0,1,1.1,1.93H7.34ZM6,18.93a3.7,3.7,0,0,1,0-7.4,3.86,3.86,0,0,1,1.19.2L5.31,14.84a.75.75,0,0,0,0,.78A.77.77,0,0,0,6,16H9.59A3.7,3.7,0,0,1,6,18.93ZM13.39,14,11.58,8.55H18ZM22,18.93a3.7,3.7,0,0,1-2.55-6.38,8.89,8.89,0,0,0,2,3.22.77.77,0,0,0,1.1,0,.78.78,0,0,0,0-1.1A7.47,7.47,0,0,1,20.93,12l-.09-.27a3.86,3.86,0,0,1,1.19-.2,3.7,3.7,0,0,1,0,7.4Z"/></g></svg>